<?xml version="1.0" encoding="UTF-8"?>
<!DOCTYPE svg PUBLIC "-//W3C//DTD SVG 1.0//EN" "http://www.w3.org/TR/2001/REC-SVG-20010904/DTD/svg10.dtd">
<!-- Creator: CorelDRAW X6 -->
<svg xmlns="http://www.w3.org/2000/svg" xml:space="preserve" width="6969px" height="1063px" version="1.0" style="shape-rendering:geometricPrecision; text-rendering:geometricPrecision; image-rendering:optimizeQuality; fill-rule:evenodd; clip-rule:evenodd"
viewBox="0 0 6969 1063"
 xmlns:xlink="http://www.w3.org/1999/xlink">
 <defs>
  <style type="text/css">
   <![CDATA[
    .fil2 {fill:#363789;fill-rule:nonzero}
    .fil0 {fill:#434242;fill-rule:nonzero}
    .fil1 {fill:#AE2B30;fill-rule:nonzero}
    .fil3 {fill:#D9DADA;fill-rule:nonzero}
   ]]>
  </style>
 </defs>
 <g id="Слой_x0020_1">
  <metadata id="CorelCorpID_0Corel-Layer"/>
  <path class="fil0" d="M2107 866l24 0 0 -626 -75 0 0 293 8 179 -407 -471 -26 0 0 624 74 0 0 -300 -6 -171 408 472zm578 -155l73 154 77 0 0 -10 -288 -617 -34 0 -291 617 0 10 78 0 73 -154 312 0zm-156 -356l131 292 -262 0 131 -292zm345 340c4,128 135,184 251,181 113,-3 242,-51 242,-185 0,-138 -116,-161 -240,-175 -76,-10 -166,-13 -166,-106 0,-82 86,-111 154,-113 71,0 155,25 162,104l70 0c-4,-121 -126,-174 -234,-171 -110,0 -227,58 -227,181 0,125 114,154 227,166 85,12 179,13 179,114 -3,91 -95,117 -169,120 -77,0 -173,-32 -178,-116l-72 0zm1096 170l0 -624 -75 0 0 263 -330 0 0 -263 -74 0 0 624 74 0 0 -293 330 0 0 293 75 0zm273 -191c-54,0 -101,0 -154,0 -4,275 505,268 505,5 0,-156 -121,-172 -245,-186 -56,-6 -103,-16 -99,-63 5,-74 173,-81 173,2 54,0 95,0 152,0 4,-269 -482,-269 -476,0 2,136 91,182 227,192 62,4 114,11 114,54 0,73 -195,75 -195,-4zm559 -291l0 482c53,0 105,0 158,0l0 -482 153 0c0,-48 0,-95 0,-143l-464 0c0,47 0,95 0,143l153 0zm1012 170c0,-432 -641,-432 -641,0 0,433 641,433 641,0zm-476 0c0,-225 313,-225 313,0 0,227 -313,227 -313,0zm1002 90c158,-107 113,-402 -132,-403 -91,0 -184,0 -274,0 0,209 0,417 0,624 52,0 106,0 160,0l0 -184 83 0 107 184 178 0 0 -23 -122 -198zm-132 -106l-114 0c0,-50 0,-103 0,-154 37,0 77,-1 114,0 91,1 87,154 0,154zm740 -297c-146,0 -245,0 -390,0 0,207 0,416 0,624 145,0 252,0 398,0 0,-47 0,-95 0,-142 -94,0 -147,0 -239,0 0,-37 0,-73 0,-110l212 0c0,-47 0,-95 0,-142l-212 0 0 -88c92,0 138,0 231,0 0,-48 0,-96 0,-143z"/>
  <path class="fil1" d="M1074 46c5,-8 -1,-19 -11,-19l-207 0c-10,0 -16,10 -11,19l103 179c5,8 17,8 22,0l104 -179z"/>
  <path class="fil1" d="M855 1050c-5,8 1,19 11,19l207 0c10,0 16,-10 11,-19l-104 -179c-5,-8 -17,-8 -22,0l-104 179z"/>
  <path class="fil1" d="M1228 252c10,0 16,-10 11,-19l-104 -179c-5,-8 -17,-8 -22,0l-104 179c-5,8 1,19 11,19l207 0z"/>
  <path class="fil1" d="M1113 487c5,8 17,8 22,0l104 -179c5,-8 -1,-19 -11,-19l-207 0c-10,0 -16,10 -11,19l104 179z"/>
  <path class="fil1" d="M1384 523c10,0 16,-10 11,-19l-104 -179c-5,-8 -17,-8 -22,0l-104 179c-5,8 1,19 11,19l207 0z"/>
  <path class="fil1" d="M1270 758c5,8 17,8 22,0l104 -179c5,-8 -1,-19 -11,-19l-207 0c-10,0 -16,10 -11,19l104 179z"/>
  <path class="fil1" d="M1010 776c-5,8 1,19 11,19l207 0c10,0 16,-10 11,-19l-104 -179c-5,-8 -17,-8 -22,0l-104 179z"/>
  <path class="fil1" d="M1113 1029c5,8 17,8 22,0l104 -179c5,-8 -1,-19 -11,-19l-207 0c-10,0 -16,10 -11,19l104 179z"/>
  <path class="fil2" d="M663 35c5,-8 -1,-19 -11,-19l-207 0c-10,0 -16,10 -11,19l103 179c5,8 17,8 22,0l104 -179z"/>
  <path class="fil2" d="M429 1049c-5,8 1,19 11,19l207 0c10,0 16,-10 11,-19l-104 -179c-5,-8 -17,-8 -22,0l-104 179z"/>
  <path class="fil2" d="M814 251c10,0 16,-10 11,-19l-104 -179c-5,-8 -17,-8 -22,0l-104 179c-5,8 1,19 11,19l207 0z"/>
  <path class="fil2" d="M699 485c5,8 17,8 22,0l104 -179c5,-8 -1,-19 -11,-19l-207 0c-10,0 -16,10 -11,19l104 179z"/>
  <path class="fil2" d="M970 522c10,0 16,-10 11,-19l-104 -179c-5,-8 -17,-8 -22,0l-104 179c-5,8 1,19 11,19l207 0z"/>
  <path class="fil2" d="M856 756c5,8 17,8 22,0l104 -179c5,-8 -1,-19 -11,-19l-207 0c-10,0 -16,10 -11,19l104 179z"/>
  <path class="fil2" d="M596 774c-5,8 1,19 11,19l207 0c10,0 16,-10 11,-19l-104 -179c-5,-8 -17,-8 -22,0l-104 179z"/>
  <path class="fil2" d="M699 1027c5,8 17,8 22,0l104 -179c5,-8 -1,-19 -11,-19l-207 0c-10,0 -16,10 -11,19l104 179z"/>
  <path class="fil3" d="M265 28c5,-8 -1,-19 -11,-19l-207 0c-10,0 -16,10 -11,19l103 179c5,8 17,8 22,0l104 -179z"/>
  <path class="fil3" d="M16 1042c-5,8 1,19 11,19l207 0c10,0 16,-10 11,-19l-104 -179c-5,-8 -17,-8 -22,0l-104 179z"/>
  <path class="fil3" d="M422 244c10,0 16,-10 11,-19l-104 -179c-5,-8 -17,-8 -22,0l-104 179c-5,8 1,19 11,19l207 0z"/>
  <path class="fil3" d="M286 478c5,8 17,8 22,0l104 -179c5,-8 -1,-19 -11,-19l-207 0c-10,0 -16,10 -11,19l104 179z"/>
  <path class="fil3" d="M557 515c10,0 16,-10 11,-19l-104 -179c-5,-8 -17,-8 -22,0l-104 179c-5,8 1,19 11,19l207 0z"/>
  <path class="fil3" d="M443 749c5,8 17,8 22,0l104 -179c5,-8 -1,-19 -11,-19l-207 0c-10,0 -16,10 -11,19l104 179z"/>
  <path class="fil3" d="M183 767c-5,8 1,19 11,19l207 0c10,0 16,-10 11,-19l-104 -179c-5,-8 -17,-8 -22,0l-104 179z"/>
  <path class="fil3" d="M286 1020c5,8 17,8 22,0l104 -179c5,-8 -1,-19 -11,-19l-207 0c-10,0 -16,10 -11,19l104 179z"/>
 </g>
</svg>
